<svg xmlns="http://www.w3.org/2000/svg" xmlns:xlink="http://www.w3.org/1999/xlink" width="44" height="45" viewBox="0 0 44 45">
    <defs>
        <linearGradient id="mxidwe2eyc" x1="34.849%" x2="68.857%" y1="-1.017%" y2="100.575%">
            <stop offset="0%" stop-color="#FFF"/>
            <stop offset="100%" stop-color="#CCBED5"/>
        </linearGradient>
        <filter id="792q6fc2ka" width="138.1%" height="136.6%" x="-19.1%" y="-13.1%" filterUnits="objectBoundingBox">
            <feOffset dy="2" in="SourceAlpha" result="shadowOffsetOuter1"/>
            <feGaussianBlur in="shadowOffsetOuter1" result="shadowBlurOuter1" stdDeviation="2"/>
            <feColorMatrix in="shadowBlurOuter1" values="0 0 0 0 0 0 0 0 0 0 0 0 0 0 0 0 0 0 0.15 0"/>
        </filter>
        <path id="p39589u8qb" d="M20.173 1.723C20.324.513 18.78-.142 17.996.8L.426 21.894c-.661.795-.09 1.994.953 1.994h15.726c.741 0 1.315.64 1.224 1.368l-1.502 12.02c-.151 1.211 1.392 1.866 2.177.924l17.57-21.094c.661-.795.09-1.994-.953-1.994H19.895c-.741 0-1.315-.64-1.224-1.368l1.502-12.02z"/>
    </defs>
    <g fill="none" fill-rule="evenodd">
        <g fill-rule="nonzero">
            <g>
                <g>
                    <g>
                        <g transform="translate(-184 -2219) translate(177 2220) translate(11)">
                            <use fill="#000" filter="url(#792q6fc2ka)" xlink:href="#p39589u8qb"/>
                            <use fill="url(#mxidwe2eyc)" xlink:href="#p39589u8qb"/>
                        </g>
                    </g>
                </g>
            </g>
        </g>
    </g>
</svg>
