<svg xmlns="http://www.w3.org/2000/svg" width="34" height="34" viewBox="0 0 34 34">
    <defs>
        <linearGradient id="ka12dw7eea" x1="33.513%" x2="70.52%" y1="-1.017%" y2="100.575%">
            <stop offset="0%" stop-color="#FFF"/>
            <stop offset="100%" stop-color="#CCBED5"/>
        </linearGradient>
    </defs>
    <g fill="none" fill-rule="evenodd">
        <g fill="url(#ka12dw7eea)" fill-rule="nonzero" transform="translate(-540 -3459)">
            <g>
                <g>
                    <path d="M17 0c9.389 0 17 7.611 17 17s-7.611 17-17 17S0 26.389 0 17 7.611 0 17 0zm0 6c-1.105 0-2 .895-2 2v9.75l.007.168c.056.668.445 1.268 1.04 1.59l6 3.25.14.07c.946.42 2.07.05 2.572-.875l.069-.14c.42-.946.05-2.07-.875-2.572L19 16.56V8l-.005-.15C18.918 6.817 18.055 6 17 6z" transform="translate(540 3459)"/>
                </g>
            </g>
        </g>
    </g>
</svg>
