<svg xmlns="http://www.w3.org/2000/svg" width="40" height="29" viewBox="0 0 40 29">
    <defs>
        <linearGradient id="zt1qu8ngca" x1="34.663%" x2="50.803%" y1="25.748%" y2="77.097%">
            <stop offset="0%" stop-color="#FFF"/>
            <stop offset="100%" stop-color="#CCBED5"/>
        </linearGradient>
    </defs>
    <g fill="none" fill-rule="evenodd">
        <g fill-rule="nonzero">
            <g>
                <g>
                    <path fill="#C4C4C4" d="M31.019 10.899h-2.235c-.664-2.61-2.036-4.978-3.96-6.836C22.902 2.206 20.504.933 17.903.39c-2.6-.544-5.299-.336-7.789.6-2.49.935-4.671 2.561-6.296 4.692C2.19 7.813 1.186 10.365.92 13.046c-.268 2.68.21 5.385 1.38 7.804 1.17 2.419 2.986 4.456 5.24 5.88 2.254 1.425 4.856 2.179 7.511 2.177H31.02c2.353 0 4.61-.949 6.273-2.638 1.663-1.688 2.598-3.978 2.598-6.366 0-2.388-.935-4.679-2.598-6.367-1.664-1.689-3.92-2.637-6.273-2.637z" transform="translate(-165 -3053) translate(165 3053)"/>
                    <path fill="url(#zt1qu8ngca)" d="M31.019 10.899h-2.235c-.664-2.61-2.036-4.978-3.96-6.836C22.902 2.206 20.504.933 17.903.39c-2.6-.544-5.299-.336-7.789.6-2.49.935-4.671 2.561-6.296 4.692C2.19 7.813 1.186 10.365.92 13.046c-.268 2.68.21 5.385 1.38 7.804 1.17 2.419 2.986 4.456 5.24 5.88 2.254 1.425 4.856 2.179 7.511 2.177H31.02c2.353 0 4.61-.949 6.273-2.638 1.663-1.688 2.598-3.978 2.598-6.366 0-2.388-.935-4.679-2.598-6.367-1.664-1.689-3.92-2.637-6.273-2.637z" transform="translate(-165 -3053) translate(165 3053)"/>
                </g>
            </g>
        </g>
    </g>
</svg>
