<svg xmlns="http://www.w3.org/2000/svg" width="22" height="22" viewBox="0 0 22 22">
    <g fill="none" fill-rule="evenodd">
        <g fill="#FFF" fill-rule="nonzero">
            <g>
                <g>
                    <path d="M21.78 8.849C20.697 3.297 15.535-.516 9.877.057 4.219.63-.065 5.4 0 11.054c.005 2.9 1.162 5.681 3.217 7.739 1.525 1.508 3.458 2.543 5.564 2.98 3.24.667 6.61-.153 9.174-2.232 2.564-2.08 4.05-5.197 4.044-8.487.002-.74-.072-1.48-.22-2.205zm-1.384 2.114c-.138-.027-3.318-.71-6.545-.31-.257-.618-.532-1.229-.825-1.832 3.703-1.513 5.216-3.673 5.225-3.7 1.366 1.642 2.124 3.702 2.145 5.833v.01zm-3.19-6.927c-.028.046-1.366 2.07-4.904 3.39-1.044-1.893-2.217-3.714-3.51-5.45 2.976-.718 6.117.055 8.414 2.07v-.01zM6.995 2.614C8.258 4.34 9.42 6.135 10.478 7.992c-2.83.745-5.744 1.13-8.671 1.148.614-2.898 2.566-5.286 5.188-6.526zm-5.39 8.44l.009-.291c.165 0 4.812.1 9.643-1.33.275.519.532 1.047.76 1.585l-.366.11c-5.069 1.63-7.645 6.16-7.645 6.16-1.545-1.712-2.397-3.933-2.392-6.234h-.01zM11 20.397c-2.185.003-4.303-.754-5.985-2.142l.21.164s1.806-3.91 7.37-5.833l.064-.019c.897 2.295 1.572 4.67 2.017 7.092-1.163.487-2.413.735-3.676.729v.009zm5.253-1.595c-.092-.565-.596-3.309-1.834-6.672 3.034-.483 5.665.346 5.858.41-.417 2.552-1.877 4.819-4.034 6.262h.01z" transform="translate(-160 -313) translate(150 132) translate(10 181)"/>
                </g>
            </g>
        </g>
    </g>
</svg>
