<svg xmlns="http://www.w3.org/2000/svg" width="22" height="22" viewBox="0 0 22 22">
    <g fill="none" fill-rule="evenodd">
        <g fill="#FFF" fill-rule="nonzero">
            <g>
                <g>
                    <path d="M22 11.064C22 4.96 17.078 0 11 0 4.923 0 0 4.95 0 11.064 0 16.592 4.024 21.175 9.286 22v-7.737H6.49v-3.199h2.787V8.626c0-2.768 1.65-4.308 4.161-4.308 1.201 0 2.457.22 2.457.22V7.26H14.52c-1.375 0-1.797.853-1.797 1.732v2.072h3.044l-.486 3.209h-2.567V22C17.985 21.175 22 16.592 22 11.064" transform="translate(-160 -142) translate(150 132) translate(10 10)"/>
                </g>
            </g>
        </g>
    </g>
</svg>
