<svg xmlns="http://www.w3.org/2000/svg" width="40" height="40" viewBox="0 0 40 40">
    <defs>
        <linearGradient id="rnvmbw3yqa" x1="34.664%" x2="62.484%" y1="5.469%" y2="96.171%">
            <stop offset="0%" stop-color="#FFF"/>
            <stop offset="100%" stop-color="#CCBED5"/>
        </linearGradient>
    </defs>
    <g fill="none" fill-rule="evenodd">
        <g fill="url(#rnvmbw3yqa)" fill-rule="nonzero" transform="translate(-165 -2969)">
            <g>
                <g>
                    <path d="M40 18.889c.008 2.933-.678 5.826-2 8.444-1.568 3.138-3.978 5.776-6.961 7.621-2.983 1.845-6.42 2.822-9.928 2.824-2.933.007-5.826-.678-8.444-2L0 40l4.222-12.667c-1.322-2.618-2.007-5.511-2-8.444.002-3.507.98-6.945 2.824-9.928C6.891 5.978 9.529 3.568 12.666 2c2.619-1.322 5.512-2.008 8.445-2h1.111c4.632.256 9.007 2.21 12.287 5.49 3.28 3.281 5.235 7.656 5.491 12.288v1.11z" transform="translate(165 2969)"/>
                </g>
            </g>
        </g>
    </g>
</svg>
