<svg xmlns="http://www.w3.org/2000/svg" width="22" height="22" viewBox="0 0 22 22">
    <g fill="none" fill-rule="evenodd">
        <g fill="#FFF" fill-rule="nonzero">
            <g>
                <g>
                    <path d="M15.564.004c1.735-.06 3.418.596 4.655 1.814 1.192 1.236 1.833 2.902 1.778 4.619v9.127c0 1.906-.623 3.546-1.815 4.7-1.263 1.167-2.936 1.79-4.655 1.732H6.474c-1.705.053-3.362-.57-4.61-1.732-1.25-1.252-1.924-2.968-1.86-4.737v-9.09C.004 2.57 2.57.004 6.437.004h9.127zm.046 2.043H6.474c-1.33 0-2.474.394-3.235 1.146-.821.874-1.251 2.045-1.191 3.244v9.09c0 1.374.394 2.474 1.19 3.28.89.787 2.05 1.198 3.236 1.146h9.053c1.186.052 2.346-.36 3.235-1.146.863-.853 1.328-2.03 1.283-3.243V6.437c.03-1.18-.397-2.326-1.191-3.198-.875-.822-2.046-1.252-3.244-1.192zM11 5.282c3.107 0 5.682 2.566 5.682 5.681 0 3.138-2.544 5.682-5.682 5.682-3.137 0-5.68-2.544-5.68-5.682 0-3.137 2.543-5.681 5.68-5.681zm0 2.034c-2.005.01-3.627 1.633-3.637 3.638.01 2.005 1.632 3.628 3.637 3.638 2.005-.01 3.628-1.633 3.638-3.638-.01-2.005-1.633-3.628-3.638-3.638zm5.902-3.454c.708 0 1.283.574 1.283 1.283 0 .708-.575 1.282-1.283 1.282-.709 0-1.283-.574-1.283-1.282 0-.709.574-1.283 1.283-1.283z" transform="translate(-160 -256) translate(150 132) translate(10 124)"/>
                </g>
            </g>
        </g>
    </g>
</svg>
