<svg xmlns="http://www.w3.org/2000/svg" width="32" height="32" viewBox="0 0 32 32">
    <defs>
        <linearGradient id="2pv9cdyjma" x1="34.664%" x2="62.484%" y1="5.469%" y2="96.17%">
            <stop offset="0%" stop-color="#FFF"/>
            <stop offset="100%" stop-color="#CCBED5"/>
        </linearGradient>
    </defs>
    <g fill="none" fill-rule="evenodd">
        <g fill-rule="nonzero">
            <g>
                <g>
                    <g>
                        <path fill="#C4C4C4" d="M10.066.668h-7.26c-1.18 0-2.138.957-2.138 2.138v7.26c0 1.18.957 2.138 2.138 2.138h7.26c1.18 0 2.138-.957 2.138-2.138v-7.26c0-1.18-.957-2.138-2.138-2.138z" transform="translate(-169 -3127) translate(169 3127)"/>
                        <path fill="url(#2pv9cdyjma)" d="M11.259.668H3.077C1.747.668.668 1.747.668 3.078v8.18c0 1.331 1.079 2.41 2.41 2.41h8.18c1.331 0 2.41-1.079 2.41-2.41v-8.18c0-1.331-1.079-2.41-2.41-2.41z" transform="translate(-169 -3127) translate(169 3127)"/>
                    </g>
                    <g>
                        <path fill="#C4C4C4" d="M11.022.668h-7.26c-1.18 0-2.138.957-2.138 2.138v7.26c0 1.18.957 2.138 2.138 2.138h7.26c1.181 0 2.138-.957 2.138-2.138v-7.26c0-1.18-.957-2.138-2.138-2.138z" transform="translate(-169 -3127) translate(169 3127) translate(17.172)"/>
                        <path fill="url(#2pv9cdyjma)" d="M10.75.668H2.57C1.238.668.16 1.747.16 3.078v8.18c0 1.331 1.079 2.41 2.41 2.41h8.181c1.33 0 2.41-1.079 2.41-2.41v-8.18c0-1.331-1.08-2.41-2.41-2.41z" transform="translate(-169 -3127) translate(169 3127) translate(17.172)"/>
                    </g>
                    <g>
                        <path fill="#C4C4C4" d="M10.604.828H3.052C1.823.828.828 1.823.828 3.052v7.552c0 1.228.995 2.224 2.224 2.224h7.552c1.228 0 2.224-.996 2.224-2.224V3.052c0-1.229-.996-2.224-2.224-2.224z" transform="translate(-169 -3127) translate(169 3127) translate(19 19)"/>
                        <path fill="url(#2pv9cdyjma)" d="M10.604.828H3.052C1.823.828.828 1.823.828 3.052v7.552c0 1.228.995 2.224 2.224 2.224h7.552c1.228 0 2.224-.996 2.224-2.224V3.052c0-1.229-.996-2.224-2.224-2.224z" transform="translate(-169 -3127) translate(169 3127) translate(19 19)"/>
                    </g>
                    <g>
                        <path fill="#C4C4C4" d="M10.066 1.624h-7.26c-1.18 0-2.138.957-2.138 2.138v7.26c0 1.18.957 2.138 2.138 2.138h7.26c1.18 0 2.138-.958 2.138-2.138v-7.26c0-1.181-.957-2.138-2.138-2.138z" transform="translate(-169 -3127) translate(169 3127) translate(0 17.172)"/>
                        <path fill="url(#2pv9cdyjma)" d="M11.259.16H3.077C1.747.16.668 1.238.668 2.569v8.181c0 1.331 1.079 2.41 2.41 2.41h8.18c1.331 0 2.41-1.079 2.41-2.41V2.57c0-1.33-1.079-2.41-2.41-2.41z" transform="translate(-169 -3127) translate(169 3127) translate(0 17.172)"/>
                    </g>
                </g>
            </g>
        </g>
    </g>
</svg>
