<svg xmlns="http://www.w3.org/2000/svg" width="32" height="32" viewBox="0 0 32 32">
    <defs>
        <linearGradient id="idqagv8q3a" x1="35.294%" x2="68.303%" y1="-1.017%" y2="100.575%">
            <stop offset="0%" stop-color="#FFF"/>
            <stop offset="100%" stop-color="#CCBED5"/>
        </linearGradient>
    </defs>
    <g fill="none" fill-rule="evenodd" stroke-linecap="round" stroke-linejoin="round">
        <g stroke="url(#idqagv8q3a)" stroke-width="4" transform="translate(-928 -3460)">
            <g>
                <g>
                    <path fill-rule="nonzero" d="M11 15.21c1.237 1.617 3.13 2.628 5.19 2.772 2.06.144 4.082-.593 5.542-2.02l4.27-4.174c2.697-2.73 2.659-7.068-.086-9.75-2.746-2.684-7.184-2.721-9.977-.085l-2.448 2.379" transform="translate(930 3462)"/>
                    <path d="M17 12.79c-1.237-1.617-3.13-2.628-5.19-2.772-2.06-.144-4.082.593-5.542 2.02l-4.27 4.174c-2.697 2.73-2.659 7.068.086 9.75 2.746 2.684 7.184 2.721 9.977.085l2.434-2.379" transform="translate(930 3462)"/>
                </g>
            </g>
        </g>
    </g>
</svg>
