<svg xmlns="http://www.w3.org/2000/svg" width="20" height="20" viewBox="0 0 20 20">
    <g fill="none" fill-rule="evenodd">
        <g fill="#FFF" fill-rule="nonzero">
            <g>
                <path d="M18.525 0H1.475C.667 0 0 .642 0 1.433v17.134C0 19.358.667 20 1.475 20h17.05c.817 0 1.475-.642 1.475-1.433V1.433C20 .642 19.333 0 18.525 0zM6.058 16.75H3.042V7.7h3.016v9.05zm-1.5-10.283h-.025c-1.016 0-1.666-.692-1.666-1.559 0-.883.666-1.558 1.708-1.558 1.033 0 1.667.667 1.683 1.558 0 .867-.65 1.559-1.708 1.559h.008zM16.95 16.75h-3.025v-4.833c0-1.209-.433-2.042-1.525-2.042-.833 0-1.333.558-1.558 1.1-.084.192-.092.458-.092.733v5.042H7.733s.042-8.183 0-9.033h3.025V9c.557-.966 1.603-1.544 2.717-1.5 1.992 0 3.483 1.3 3.483 4.075v5.175h-.008z" transform="translate(-161 -314) translate(161 314)"/>
            </g>
        </g>
    </g>
</svg>
