<svg xmlns="http://www.w3.org/2000/svg" width="22" height="19" viewBox="0 0 22 19">
    <g fill="none" fill-rule="evenodd">
        <g fill="#FFF" fill-rule="nonzero">
            <g>
                <g>
                    <path d="M22 2.252c-.822.39-1.697.646-2.594.76.952-.609 1.658-1.554 1.989-2.66-.87.55-1.833.95-2.87 1.159-.844-.964-2.043-1.512-3.3-1.511-1.4.015-2.716.694-3.572 1.842-.856 1.148-1.158 2.64-.818 4.048C7.182 5.683 3.791 3.856 1.531.874.322 3.064.93 5.85 2.933 7.286c-.719-.027-1.42-.235-2.044-.608v.067c0 2.318 1.558 4.256 3.621 4.702-.663.189-1.36.215-2.035.076.578 1.91 2.246 3.297 4.217 3.335C4.815 16.436 2.399 17.156 0 16.853c2.054 1.404 4.46 2.15 6.92 2.147 8.306 0 12.834-7.315 12.834-13.652v-.617c.88-.675 1.641-1.52 2.246-2.48z" transform="translate(-160 -200) translate(150 132) translate(10 68)"/>
                </g>
            </g>
        </g>
    </g>
</svg>
